<svg xmlns="http://www.w3.org/2000/svg" xmlns:xlink="http://www.w3.org/1999/xlink">


<symbol id="telegram" viewBox="0 0 300 300">
<path d="M5.299,144.645l69.126,25.8l26.756,86.047c1.712,5.511,8.451,7.548,12.924,3.891l38.532-31.412
		c4.039-3.291,9.792-3.455,14.013-0.391l69.498,50.457c4.785,3.478,11.564,0.856,12.764-4.926L299.823,29.22
		c1.31-6.316-4.896-11.585-10.91-9.259L5.218,129.402C-1.783,132.102-1.722,142.014,5.299,144.645z M96.869,156.711l135.098-83.207
		c2.428-1.491,4.926,1.792,2.841,3.726L123.313,180.87c-3.919,3.648-6.447,8.53-7.163,13.829l-3.798,28.146
		c-0.503,3.758-5.782,4.131-6.819,0.494l-14.607-51.325C89.253,166.16,91.691,159.907,96.869,156.711z"/></symbol>

<symbol id="github" viewBox="0 0 1024 1024">

<path d="M512 0C229.25 0 0 229.25 0 512c0 226.25 146.688 418.125 350.156 485.812 25.594 4.688 34.938-11.125 34.938-24.625 0-12.188-0.469-52.562-0.719-95.312C242 908.812 211.906 817.5 211.906 817.5c-23.312-59.125-56.844-74.875-56.844-74.875-46.531-31.75 3.53-31.125 3.53-31.125 51.406 3.562 78.47 52.75 78.47 52.75 45.688 78.25 119.875 55.625 149 42.5 4.654-33 17.904-55.625 32.5-68.375C304.906 725.438 185.344 681.5 185.344 485.312c0-55.938 19.969-101.562 52.656-137.406-5.219-13-22.844-65.094 5.062-135.562 0 0 42.938-13.75 140.812 52.5 40.812-11.406 84.594-17.031 128.125-17.219 43.5 0.188 87.312 5.875 128.188 17.281 97.688-66.312 140.688-52.5 140.688-52.5 28 70.531 10.375 122.562 5.125 135.5 32.812 35.844 52.625 81.469 52.625 137.406 0 196.688-119.75 240-233.812 252.688 18.438 15.875 34.75 47 34.75 94.75 0 68.438-0.688 123.625-0.688 140.5 0 13.625 9.312 29.562 35.25 24.562C877.438 930 1024 738.125 1024 512 1024 229.25 794.75 0 512 0z"/>

</symbol>


<!-- 
<symbol id="email" viewBox="0 0 512 512">
<g><circle cx="255.999" cy="256" r="246.455"/></g><g id="Page-1"><g id="Icons-Communication" transform="translate(0.000000, -85.000000)"><g id="gmail" transform="translate(0.000000, 85.000000)"><path d="M384,128H128c-17.602,0-32,14.406-32,32v192c0,17.594,14.398,32,32,32h256     c17.594,0,32-14.406,32-32V160C416,142.406,401.594,128,384,128L384,128z M384,352h-32V211.203L256,272l-96-60.797V352h-32V160     h19.203L256,227.203L364.797,160H384V352L384,352z" fill="#FFFFFF" id="Shape"/></g></g></g></symbol>
-->

<symbol id="email" viewBox="0 0 512 512">
<g transform="translate(0.000000,512.000000) scale(0.100000,-0.100000)"
stroke="none">
<path d="M361 4464 c-169 -45 -301 -180 -346 -351 -23 -86 -23 -3020 0 -3106
45 -173 178 -307 350 -352 52 -13 309 -15 2195 -15 2330 0 2184 -4 2302 56 71
36 159 123 197 193 65 122 61 25 61 1671 0 1311 -2 1503 -15 1555 -45 172
-179 305 -352 350 -85 22 -4309 21 -4392 -1z m3703 -313 c-69 -62 -1493 -1175
-1504 -1175 -11 0 -1435 1113 -1504 1175 -6 5 659 9 1504 9 845 0 1510 -4
1504 -9z m-2439 -1275 c512 -394 932 -716 935 -716 3 0 433 329 955 731 523
402 953 733 957 735 5 3 8 -596 8 -1330 l0 -1336 -1920 0 -1920 0 0 1336 0
1335 28 -20 c15 -10 446 -341 957 -735z"/>
</g>
</symbol>




<symbol id="bitbucket" viewBox="0 0 256 295">


<g>
		<path d="M128,4.60742407e-06 L128,4.60742407e-06 C57.7318818,4.60742407e-06 0.0116395051,18.8218157 0.0116395051,42.6627818 C0.0116395051,48.9367227 15.069093,138.026665 21.3430339,173.160715 C23.8526056,189.472966 65.2606085,212.059146 128,212.059146 L128,212.059146 C190.739386,212.059146 230.892591,189.472966 234.656972,173.160715 C240.930901,138.026665 255.988355,48.9367227 255.988355,42.6627818 C254.733569,18.8218157 198.268112,4.60742407e-06 128,4.60742407e-06 L128,4.60742407e-06 Z M128,183.199025 C105.41382,183.199025 87.8467888,165.631988 87.8467888,143.045808 C87.8467888,120.459628 105.41382,102.892607 128,102.892607 C150.586169,102.892607 168.153205,120.459628 168.153205,143.045808 C168.153205,164.377203 150.586169,183.199025 128,183.199025 L128,183.199025 Z M128,55.2106636 C82.8276337,55.2106636 46.4387859,47.6819368 46.4387859,37.6436384 C46.4387859,27.6053283 82.8276337,20.0766016 128,20.0766016 C173.172349,20.0766016 209.561208,27.6053283 209.561208,37.6436384 C209.561208,47.6819368 173.172349,55.2106636 128,55.2106636 L128,55.2106636 Z"></path>
		<path d="M220.608176,207.039991 C218.098592,207.039991 216.843807,208.294777 216.843807,208.294777 C216.843807,208.294777 185.474114,233.390541 129.008657,233.390541 C72.5432113,233.390541 41.1735069,208.294777 41.1735069,208.294777 C41.1735069,208.294777 38.6639351,207.039991 37.4091493,207.039991 C34.899566,207.039991 32.3899943,208.294777 32.3899943,212.059146 L32.3899943,213.313932 C37.4091493,239.664482 41.1735069,258.486293 41.1735069,260.995864 C44.937876,279.817687 82.5815098,294.875141 127.753871,294.875141 L127.753871,294.875141 C172.926232,294.875141 210.569866,279.817687 214.334235,260.995864 C214.334235,258.486293 218.098592,239.664482 223.117747,213.313932 L223.117747,212.059146 C224.372533,209.549563 223.117747,207.039991 220.608176,207.039991 L220.608176,207.039991 Z"></path>
		<circle cx="128" cy="141.79108" r="20.076605"></circle>
	</g>


</symbol>


</svg>
